<svg width="20" height="20" viewBox="0 0 20 20" fill="none" xmlns="http://www.w3.org/2000/svg">
<g id="printer" clip-path="url(#clip0_233_1944)">
<path id="Vector" d="M5 7.49996V1.66663H15V7.49996" stroke="white" stroke-width="1.5" stroke-linecap="round" stroke-linejoin="round"/>
<path id="Vector_2" d="M5.00008 15H3.33341C2.89139 15 2.46746 14.8244 2.1549 14.5118C1.84234 14.1993 1.66675 13.7754 1.66675 13.3333V9.16667C1.66675 8.72464 1.84234 8.30072 2.1549 7.98816C2.46746 7.6756 2.89139 7.5 3.33341 7.5H16.6667C17.1088 7.5 17.5327 7.6756 17.8453 7.98816C18.1578 8.30072 18.3334 8.72464 18.3334 9.16667V13.3333C18.3334 13.7754 18.1578 14.1993 17.8453 14.5118C17.5327 14.8244 17.1088 15 16.6667 15H15.0001" stroke="white" stroke-width="1.5" stroke-linecap="round" stroke-linejoin="round"/>
<path id="Vector_3" d="M15 11.6666H5V18.3333H15V11.6666Z" stroke="white" stroke-width="1.5" stroke-linecap="round" stroke-linejoin="round"/>
</g>
<defs>
<clipPath id="clip0_233_1944">
<rect width="20" height="20" fill="white"/>
</clipPath>
</defs>
</svg>
